# xmcd
#
# Track frame offsets:
#	150
#	15842
#	31104
#	46384
#	61822
#	73871
#	88486
#	107650
#	123135
#	135443
#	149636
#	166555
#	180275
#	198774
#
# Disc length: 2922 seconds
#
# Revision: 0
# Processed by: cddbd v1.5.2PL0 Copyright (c) Steve Scherf et al.
# Submitted via: EasyCDDAExtractor 11.1.0.1
#
DISCID=ae0b680e
DTITLE=Various Artist - Mr Music Country 03
DYEAR=2008
DGENRE=country
TTITLE0=W.C. Edgar - Alcohol of fame
TTITLE1=Van Preston - Heartache for the last time
TTITLE2=T. Jae Christian - Country, not the neon kind
TTITLE3=Joe Bonson - Time mashine
TTITLE4=Ed Bentley - Hank and the boys
TTITLE5=Liz Talley - A stranger in my arms
TTITLE6=Bo Göran Svensson - I don't know what she said
TTITLE7=Mary Lee and T. Jae Christian - Temporarily your
TTITLE8=Mike Manuel - Angel just for me
TTITLE9=Walt Evans - Family dream
TTITLE10=Sammy Hernandez - Facts of love
TTITLE11=Tammy Rogers - How can I lose?
TTITLE12=Keith McCoy - We thank you, George Jones
TTITLE13=George Jones - I think I'll just stay here and drink
EXTD=
EXTT0=
EXTT1=
EXTT2=
EXTT3=
EXTT4=
EXTT5=
EXTT6=
EXTT7=
EXTT8=
EXTT9=
EXTT10=
EXTT11=
EXTT12=
EXTT13=
PLAYORDER=
